<svg width="24" height="24" viewBox="0 0 24 24" fill="none" xmlns="http://www.w3.org/2000/svg">
<path d="M7.17447 15.0091C4.94943 15.3735 2.84101 16.2134 1.00886 17.4649C0.692384 17.6945 0.436507 17.9907 0.261436 18.3301C0.0863639 18.6695 -0.00310861 19.0429 8.24541e-05 19.4207V23.505C-5.76186e-05 23.57 0.0133125 23.6343 0.0394276 23.6943C0.0655426 23.7544 0.10389 23.809 0.152274 23.855C0.200658 23.9009 0.258129 23.9374 0.321397 23.9623C0.384666 23.9872 0.452489 24 0.520984 24H23.479C23.5475 24 23.6153 23.9872 23.6786 23.9623C23.7419 23.9374 23.7993 23.9009 23.8477 23.855C23.8961 23.809 23.9345 23.7544 23.9606 23.6943C23.9867 23.6343 24.0001 23.57 23.9999 23.505V19.4207C24.0031 19.0429 23.9136 18.6695 23.7386 18.3301C23.5635 17.9907 23.3076 17.6945 22.9911 17.4649C21.159 16.2134 19.0506 15.3735 16.8255 15.0091C16.7336 14.992 16.6384 14.9991 16.5504 15.0295C16.4623 15.06 16.3847 15.1126 16.3259 15.1818C16.2056 15.3182 15.0562 18.0397 12 18.0397C9.0365 18.0397 7.76567 15.2839 7.67513 15.1808C7.61539 15.1125 7.53747 15.0605 7.44945 15.0303C7.36142 15.0001 7.26648 14.9928 7.17447 15.0091Z" fill="#999999"/>
<path d="M14.2138 13.5632C15.3296 13.1101 16.2868 12.3259 16.9617 11.312C17.6366 10.298 17.9983 9.10081 18 7.87493V6.12504C18 4.50058 17.3679 2.94265 16.2426 1.79398C15.1174 0.645315 13.5913 0 12 0C10.4087 0 8.88258 0.645315 7.75737 1.79398C6.63215 2.94265 6.00001 4.50058 6.00001 6.12504V7.87493C5.99843 8.87498 6.23713 9.86017 6.69519 10.7442C7.15326 11.6282 7.8167 12.384 8.6274 12.9454C9.4381 13.5068 10.3713 13.8567 11.3452 13.9644C12.3192 14.0721 13.3041 13.9344 14.2138 13.5632Z" fill="#999999"/>
</svg>
