<svg width="56" height="56" viewBox="0 0 56 56" fill="none" xmlns="http://www.w3.org/2000/svg">
<path d="M38.4999 5L35.4999 3.5C23.9999 9.5 22 28 28.9999 34L31.4999 33.5L36.4999 31.5L39.9999 28.5L42.9999 23.5L44.4999 17.5L43.4999 12.5L41.4999 8L38.4999 5Z" fill="#F6F6F6"/>
<path d="M29 33.5C22.5 24 27 8 37.5 4L29 1L23.5 1.5L17.5 5L13 10.5L11.5 18L13 24L17.5 30L21.5 32.5C22.5 32.8333 25.4 33.5 29 33.5Z" fill="#F6F6F6"/>
<path d="M28 54C38.4934 54 47 49.299 47 43.5C47 37.701 38.4934 33 28 33C17.5066 33 9 37.701 9 43.5C9 49.299 17.5066 54 28 54Z" fill="#F6F6F6" stroke="#252525" stroke-width="3" stroke-linecap="round" stroke-linejoin="round"/>
<path d="M14.5002 42.0001C15.4335 39.2001 25.0002 37.0001 30.0002 37.5C28.8335 37.5 24.0002 46.0001 24.5002 49.1667C12.8335 46.8334 13.9188 43.7444 14.5002 42.0001Z" fill="#ED1C24"/>
<path d="M24.5 49C25.2622 43.9578 26.3577 41.3967 30 37.5C30 37.5 33.3333 37.8333 36.1667 38.6667C39 39.5 42 42.1667 42 42.1667V44L40.5 46C40.5 46 37.3536 47.8068 35 48.5C32.7715 49.1564 29.1667 49.1667 29.1667 49.1667L24.5 49Z" fill="#FDE8E9"/>
<path d="M28 33C36.8366 33 44 26.0604 44 17.5C44 8.93959 36.8366 2 28 2C19.1634 2 12 8.93959 12 17.5C12 26.0604 19.1634 33 28 33Z" fill="#F6F6F6" stroke="#252525" stroke-width="3" stroke-linecap="round" stroke-linejoin="round"/>
<path d="M28 49.1667C35.732 49.1667 42 46.555 42 43.3333C42 40.1117 35.732 37.5 28 37.5C20.268 37.5 14 40.1117 14 43.3333C14 46.555 20.268 49.1667 28 49.1667Z" stroke="#252525" stroke-width="3" stroke-linecap="round" stroke-linejoin="round"/>
<path d="M24.5513 48.9894C24.8805 44.625 26.8386 40.5439 30.0369 37.556" stroke="#252525" stroke-width="3" stroke-linecap="round" stroke-linejoin="round"/>
<line x1="28.4796" y1="12.2307" x2="23.4494" y2="16.2424" stroke="#252525" stroke-width="3" stroke-linecap="round"/>
<line x1="34.7473" y1="14.1062" x2="23.1062" y2="23.2527" stroke="#252525" stroke-width="3" stroke-linecap="round"/>
</svg>
