<svg width="24" height="24" viewBox="0 0 24 24" fill="none" xmlns="http://www.w3.org/2000/svg">
<path d="M23.611 8.70898L12.611 0.20898C12.436 0.0738867 12.2211 0.000610352 12 0.000610352C11.7789 0.000610352 11.564 0.0738867 11.389 0.20898L0.389 8.70898C0.268036 8.80234 0.170076 8.92219 0.102642 9.05931C0.0352093 9.19643 9.63811e-05 9.34718 0 9.49998L0 23C0 23.2652 0.105357 23.5196 0.292893 23.7071C0.48043 23.8946 0.734784 24 1 24H23C23.2652 24 23.5196 23.8946 23.7071 23.7071C23.8946 23.5196 24 23.2652 24 23V9.49998C23.9999 9.34718 23.9648 9.19643 23.8974 9.05931C23.8299 8.92219 23.732 8.80234 23.611 8.70898Z" fill="#3374DD"/>
</svg>
