<svg width="24" height="24" viewBox="0 0 24 24" fill="none" xmlns="http://www.w3.org/2000/svg">
<path d="M19.5229 15.2574C19.3196 15.775 18.9817 16.2161 18.5511 16.5258C18.1205 16.8356 17.6161 17.0005 17.1005 17H8.54826C8.01548 17.002 7.49479 16.8266 7.05559 16.4972C6.61639 16.1677 6.27955 15.6999 6.08994 15.156L2.12287 4.39656C2.04189 4.18539 2.00013 3.95875 2 3.7298C1.99987 3.50084 2.04137 3.27414 2.1221 3.06286C2.20284 2.85157 2.32119 2.65991 2.47029 2.49899C2.61939 2.33807 2.79627 2.21111 2.99066 2.12548C3.18505 2.03984 3.39307 1.99724 3.60266 2.00014C3.81224 2.00304 4.01921 2.05139 4.21155 2.14238C4.40389 2.23336 4.57777 2.36518 4.72309 2.53017C4.86841 2.69516 4.98228 2.89004 5.05808 3.10349L5.80507 5.1134C5.84365 5.22022 5.91078 5.31187 5.99772 5.37642C6.08467 5.44097 6.18739 5.47542 6.29252 5.47528H19.3604C19.797 5.47493 20.2268 5.59296 20.6113 5.81878C20.9959 6.0446 21.3231 6.37113 21.5636 6.76911C21.8041 7.16708 21.9504 7.62405 21.9894 8.09902C22.0285 8.57398 21.9589 9.0521 21.7871 9.49048L19.5229 15.2574Z" fill="#999999"/>
<path d="M16 22C14.8954 22 14 21.1046 14 20C14 18.8954 14.8954 18 16 18C17.1046 18 18 18.8954 18 20C18 21.1046 17.1046 22 16 22Z" fill="#999999"/>
<path d="M10 18C10.3956 18 10.7822 18.1173 11.1111 18.3371C11.44 18.5568 11.6964 18.8692 11.8478 19.2346C11.9991 19.6001 12.0387 20.0022 11.9616 20.3902C11.8844 20.7781 11.6939 21.1345 11.4142 21.4142C11.1345 21.6939 10.7781 21.8844 10.3902 21.9616C10.0022 22.0387 9.60009 21.9991 9.23463 21.8478C8.86918 21.6964 8.55682 21.44 8.33706 21.1111C8.1173 20.7822 8 20.3956 8 20C8 19.4696 8.21071 18.9609 8.58579 18.5858C8.96086 18.2107 9.46957 18 10 18Z" fill="#999999"/>
</svg>
