<svg width="56" height="56" viewBox="0 0 56 56" fill="none" xmlns="http://www.w3.org/2000/svg">
<path d="M46.9999 11.6667V24.5H37.8333C36.9999 24.5 35.3333 25.1 35.3333 27.5V35H7.33325V11.6667C7.33325 9.08833 9.42159 7 11.9999 7H42.3333C44.9116 7 46.9999 9.08833 46.9999 11.6667Z" fill="#F6F6F6"/>
<path d="M46.9999 24.5V26C47.8283 26 48.4999 25.3284 48.4999 24.5H46.9999ZM7.33325 35H5.83325C5.83325 35.8284 6.50482 36.5 7.33325 36.5V35ZM35.3333 35V36.5C36.1617 36.5 36.8333 35.8284 36.8333 35H35.3333ZM48.4999 24.5V11.6667H45.4999V24.5H48.4999ZM48.4999 11.6667C48.4999 8.25991 45.74 5.5 42.3333 5.5V8.5C44.0832 8.5 45.4999 9.91676 45.4999 11.6667H48.4999ZM42.3333 5.5H11.9999V8.5H42.3333V5.5ZM11.9999 5.5C8.59316 5.5 5.83325 8.25991 5.83325 11.6667H8.83325C8.83325 9.91676 10.25 8.5 11.9999 8.5V5.5ZM5.83325 11.6667V35H8.83325V11.6667H5.83325ZM46.9999 23H37.8333V26H46.9999V23ZM37.8333 23C37.1139 23 36.1239 23.2446 35.2901 23.965C34.402 24.7323 33.8333 25.9163 33.8333 27.5H36.8333C36.8333 26.6837 37.0978 26.3677 37.2514 26.235C37.4593 26.0554 37.7193 26 37.8333 26V23ZM33.8333 27.5V35H36.8333V27.5H33.8333ZM35.3333 33.5H7.33325V36.5H35.3333V33.5Z" fill="#252525"/>
<path d="M35.3333 42H7.33333C6.04533 42 5 40.9547 5 39.6667V37.3333C5 36.0453 6.04533 35 7.33333 35H35.3333" fill="#FDD835"/>
<path d="M35.3333 42H7.33333C6.04533 42 5 40.9547 5 39.6667V37.3333C5 36.0453 6.04533 35 7.33333 35H35.3333" stroke="#252525" stroke-width="3" stroke-linecap="round" stroke-linejoin="round"/>
<path d="M49.3333 49H37.6666C36.3786 49 35.3333 47.9547 35.3333 46.6667V26.8333C35.3333 25.5453 36.3786 24.5 37.6666 24.5H49.3333C50.6213 24.5 51.6666 25.5453 51.6666 26.8333V46.6667C51.6666 47.9547 50.6213 49 49.3333 49Z" fill="#F6F6F6" stroke="#252525" stroke-width="2.5" stroke-linecap="round" stroke-linejoin="round"/>
<path d="M49.0475 49H37.619C36.3573 49 35.3333 48.7013 35.3333 48.3333V42.6667C35.3333 42.2987 36.3573 42 37.619 42H49.0475C50.3093 42 51.3333 42.2987 51.3333 42.6667V48.3333C51.3333 48.7013 50.3093 49 49.0475 49Z" fill="#FDD835"/>
<path d="M49.3333 49H37.6666C36.3786 49 35.3333 47.9547 35.3333 46.6667V26.8333C35.3333 25.5453 36.3786 24.5 37.6666 24.5H49.3333C50.6213 24.5 51.6666 25.5453 51.6666 26.8333V46.6667C51.6666 47.9547 50.6213 49 49.3333 49Z" stroke="#252525" stroke-width="3" stroke-linecap="round" stroke-linejoin="round"/>
<path d="M35.3333 42H51.6666" stroke="#252525" stroke-width="3" stroke-linecap="round" stroke-linejoin="round"/>
</svg>
