<svg width="16" height="16" viewBox="0 0 16 16" fill="none" xmlns="http://www.w3.org/2000/svg">
<path d="M4.21683 8.52159H5.97068V15.7419C5.97068 15.8845 6.08618 16 6.22874 16H9.20246C9.34502 16 9.46052 15.8845 9.46052 15.7419V8.55562H11.4767C11.6078 8.55562 11.7181 8.45725 11.7331 8.32703L12.0393 5.66888C12.0477 5.59575 12.0246 5.5225 11.9756 5.46763C11.9267 5.41272 11.8566 5.38128 11.783 5.38128H9.46065V3.715C9.46065 3.21272 9.73108 2.958 10.2646 2.958C10.3406 2.958 11.783 2.958 11.783 2.958C11.9256 2.958 12.0411 2.84244 12.0411 2.69994V0.259969C12.0411 0.117406 11.9256 0.00190625 11.783 0.00190625H9.69036C9.67561 0.0011875 9.64283 0 9.59452 0C9.23143 0 7.96933 0.0712812 6.97236 0.988437C5.86774 2.00481 6.0213 3.22172 6.05799 3.43272V5.38122H4.2168C4.07424 5.38122 3.95874 5.49672 3.95874 5.63928V8.2635C3.95877 8.40603 4.07427 8.52159 4.21683 8.52159Z" fill="#385C8E"/>
</svg>
