<svg width="56" height="56" viewBox="0 0 56 56" fill="none" xmlns="http://www.w3.org/2000/svg">
<path d="M46.3091 46.0658C44.6641 28.0898 32.9485 21.4468 32.9485 21.4468C32.9485 16.4161 36.6678 13.0864 39.0875 11.4531C40.2168 10.6901 40.5854 9.17344 39.9811 7.93211L39.3091 6.55077C38.7561 5.41677 37.5148 4.76811 36.3178 5.07844C33.4501 5.82277 30.8601 7.59377 29.2781 8.86077C28.3261 9.62377 27.0078 9.62377 26.0535 8.86077C24.4691 7.59377 21.8791 5.82277 19.0138 5.07844C17.8168 4.76577 16.5755 5.41444 16.0225 6.55077L15.3505 7.93211C14.7461 9.17344 15.1171 10.6924 16.2441 11.4531C18.6638 13.0864 22.3831 16.4161 22.3831 21.4468C22.3831 21.4468 10.6651 28.0898 9.02246 46.0658C8.63746 50.2681 13.2878 52.9188 16.4658 50.2471L16.5241 50.1981C18.4771 48.5578 21.8348 48.3571 23.6781 50.1304C25.7875 52.1604 29.4671 52.1768 31.6021 50.1818C33.4991 48.4108 36.8848 48.5788 38.8681 50.2471C42.0438 52.9211 46.6941 50.2704 46.3091 46.0658Z" fill="#F6F6F6" stroke="#252525" stroke-width="2.5" stroke-linecap="round" stroke-linejoin="round"/>
<path d="M32.666 21.3324H22.666L21.166 16.8324L20.666 15.3324L17.666 12.8324L16.166 11.3324C15.8327 10.9991 15.166 10.0325 15.166 8.83246C15.966 4.83246 18.4993 4.83244 19.666 5.33243L23.166 6.83243C23.4993 6.9991 24.566 7.63246 26.166 8.83246C27.766 10.0325 29.4993 8.99913 30.166 8.33246C31.166 7.83246 33.466 6.63245 34.666 5.83243C35.466 5.03243 37.3327 5.16576 38.166 5.33243L39.666 6.83243L40.166 9.83243C39.9993 10.3324 39.266 11.6324 37.666 12.8324C34.466 14.8324 32.9993 19.3324 32.666 21.3324Z" fill="#ED1C24"/>
<path d="M46.3091 46.0658C44.6641 28.0898 32.9485 21.4468 32.9485 21.4468C32.9485 16.4161 36.6678 13.0864 39.0875 11.4531C40.2168 10.6901 40.5855 9.17344 39.9811 7.93211L39.3091 6.55077C38.7561 5.41677 37.5148 4.76811 36.3178 5.07844C33.4501 5.82277 30.8601 7.59377 29.2781 8.86077C28.3261 9.62377 27.0078 9.62377 26.0535 8.86077C24.4691 7.59377 21.8791 5.82277 19.0138 5.07844C17.8168 4.76577 16.5755 5.41444 16.0225 6.55077L15.3505 7.93211C14.7461 9.17344 15.1171 10.6924 16.2441 11.4531C18.6638 13.0864 22.3831 16.4161 22.3831 21.4468C22.3831 21.4468 10.6651 28.0898 9.02246 46.0658C8.63746 50.2681 13.2878 52.9188 16.4658 50.2471L16.5241 50.1981C18.4771 48.5578 21.8348 48.3571 23.6781 50.1304C25.7875 52.1604 29.4671 52.1768 31.6021 50.1818C33.4991 48.4108 36.8848 48.5788 38.8681 50.2471C42.0438 52.9211 46.6941 50.2704 46.3091 46.0658Z" stroke="#252525" stroke-width="3" stroke-linecap="round" stroke-linejoin="round"/>
<path d="M22.3926 21.4491H32.9392" stroke="#252525" stroke-width="3" stroke-linecap="round" stroke-linejoin="round"/>
<line x1="17.0619" y1="49.6711" x2="23.0047" y2="36.9365" stroke="#252525" stroke-width="2.5" stroke-linecap="round"/>
<line x1="32.0314" y1="49.6825" x2="35.0161" y2="42.967" stroke="#252525" stroke-width="2.5" stroke-linecap="round"/>
</svg>
