<svg width="56" height="56" viewBox="0 0 56 56" fill="none" xmlns="http://www.w3.org/2000/svg">
<path d="M16.3333 12H11.6666C10.3786 12 9.33325 13.0454 9.33325 14.3334V49.3334C9.33325 50.6214 10.3786 51.6667 11.6666 51.6667H44.3332C45.6212 51.6667 46.6666 50.6214 46.6666 49.3334V14.3334C46.6666 13.0454 45.6212 12 44.3332 12H39.6666" fill="#F6F6F6"/>
<path d="M16.3333 12H11.6666C10.3786 12 9.33325 13.0454 9.33325 14.3334V49.3334C9.33325 50.6214 10.3786 51.6667 11.6666 51.6667H44.3332C45.6212 51.6667 46.6666 50.6214 46.6666 49.3334V14.3334C46.6666 13.0454 45.6212 12 44.3332 12H39.6666" stroke="#252525" stroke-width="3" stroke-linecap="round" stroke-linejoin="round"/>
<path d="M18.6665 37.6667H37.3332" stroke="#252525" stroke-width="3" stroke-linecap="round" stroke-linejoin="round"/>
<path d="M23.3333 44.6667H32.6666" stroke="#252525" stroke-width="3" stroke-linecap="round" stroke-linejoin="round"/>
<path d="M20.9999 9.6667L22.0429 7.5807C22.8339 5.9987 24.4509 5.00003 26.2173 5.00003H29.7826C31.5513 5.00003 33.1659 5.9987 33.9569 7.5807L34.9999 9.6667H37.3333C38.6213 9.6667 39.6666 10.712 39.6666 12V14.3334C39.6666 15.6214 38.6213 16.6667 37.3333 16.6667H18.6666C17.3786 16.6667 16.3333 15.6214 16.3333 14.3334V12C16.3333 10.712 17.3786 9.6667 18.6666 9.6667H20.9999Z" fill="#90E45C" stroke="#252525" stroke-width="3" stroke-linecap="round" stroke-linejoin="round"/>
<path d="M24.5 27.1667H31.5" stroke="#252525" stroke-width="3" stroke-linecap="round" stroke-linejoin="round"/>
<path d="M28 23.6667V30.6667" stroke="#252525" stroke-width="3" stroke-linecap="round" stroke-linejoin="round"/>
</svg>
