<svg width="56" height="56" viewBox="0 0 56 56" fill="none" xmlns="http://www.w3.org/2000/svg">
<path d="M47.25 51.625C46.5827 51.625 45.983 51.254 45.6843 50.6567L43.974 47.2383C42.2077 47.824 40.3713 48.1227 38.5023 48.125H17.5C15.6287 48.1227 13.7923 47.824 12.026 47.2383L10.3157 50.6567C10.017 51.254 9.41733 51.625 8.75 51.625C8.48167 51.625 8.211 51.562 7.96833 51.4407C7.54833 51.2307 7.238 50.8713 7.091 50.428C6.944 49.9847 6.97667 49.511 7.18667 49.091L8.82933 45.8057C3.36933 42.679 0.007 36.9413 0 30.625C0 26.7633 3.14067 23.6227 7 23.6227C7.33833 23.6227 7.67667 23.6483 8.01267 23.6973L9.604 11.8253C10.269 7.504 13.9067 4.375 18.256 4.375H37.7487C42.1003 4.375 45.738 7.49467 46.3983 11.795L47.9943 23.6997C48.328 23.6507 48.664 23.625 49 23.625C52.8593 23.625 56 26.7657 56 30.625C55.993 36.9413 52.633 42.6813 47.173 45.808L48.8157 49.0933C49.2473 49.9567 48.895 51.009 48.034 51.4407C47.7913 51.562 47.5207 51.625 47.25 51.625Z" fill="#252525"/>
<path d="M7 27.125C5.07033 27.125 3.5 28.6953 3.5 30.625C3.507 38.3367 9.78833 44.618 17.5023 44.625H38.5C46.2117 44.618 52.493 38.3367 52.5 30.6227C52.5 28.6953 50.9297 27.125 49 27.125C47.0703 27.125 45.5 28.6953 45.5 30.625C45.4953 34.482 42.357 37.6203 38.5023 37.625H17.5C13.643 37.6203 10.5023 34.482 10.5 30.625C10.5 28.6953 8.92967 27.125 7 27.125Z" fill="#85ACEB"/>
<path d="M11.3494 25.144C13.02 26.4693 14 28.4807 14 30.625C14.0024 32.5523 15.5727 34.1227 17.5024 34.125H38.5C40.4274 34.1227 41.9977 32.5523 42 30.6227C42 28.476 42.9847 26.4647 44.6554 25.1393L42.9334 12.2943C42.539 9.74167 40.3574 7.875 37.7487 7.875H18.256C15.6474 7.875 13.4634 9.74633 13.0667 12.327L11.3494 25.144Z" fill="#F6F6F6"/>
<rect x="20" y="23" width="16" height="12" fill="#D6E3F8"/>
<path d="M36.75 36.25C35.784 36.25 35 35.466 35 34.5V25.375C35 24.409 34.216 23.625 33.25 23.625H22.75C21.784 23.625 21 24.409 21 25.375V34.5C21 35.466 20.216 36.25 19.25 36.25C18.284 36.25 17.5 35.466 17.5 34.5V25.375C17.5 22.4793 19.8543 20.125 22.75 20.125H33.25C36.1457 20.125 38.5 22.4793 38.5 25.375V34.5C38.5 35.466 37.716 36.25 36.75 36.25Z" fill="#252525"/>
</svg>
