<svg width="56" height="56" viewBox="0 0 56 56" fill="none" xmlns="http://www.w3.org/2000/svg">
<rect x="2" y="2" width="52" height="12" rx="4" fill="#F6F6F6" stroke="#252525" stroke-width="3"/>
<path d="M3.5 9L52.5 9V11C52.5 12.1046 51.6046 13 50.5 13H5.76556C4.75692 13 3.90612 12.2489 3.78101 11.2481L3.5 9Z" fill="#FAC9A9"/>
<rect x="2" y="33" width="52" height="21" rx="4" fill="#F6F6F6" stroke="#252525" stroke-width="3"/>
<path d="M2 37C2 34.7909 3.79086 33 6 33H50C52.2091 33 54 34.7909 54 37V42H2V37Z" fill="#F37727" stroke="#252525" stroke-width="3"/>
<line x1="20.5" y1="1" x2="20.5" y2="13" stroke="#252525" stroke-width="3"/>
<line x1="20.5" y1="43" x2="20.5" y2="55" stroke="#252525" stroke-width="3"/>
<line x1="38.5" y1="1" x2="38.5" y2="13" stroke="#252525" stroke-width="3"/>
<line x1="38.5" y1="43" x2="38.5" y2="55" stroke="#252525" stroke-width="3"/>
<line x1="1" y1="41.75" x2="55" y2="41.75" stroke="#252525" stroke-width="2.5"/>
<path fill-rule="evenodd" clip-rule="evenodd" d="M11.9516 25C11.366 25 10.901 25.5033 11.0182 26.077C11.8263 30.0354 15.1374 33.0001 19.0992 33.0001C23.0611 33.0001 26.3722 30.0354 27.1803 26.077C27.2974 25.5033 26.8324 25 26.2469 25H11.9516Z" fill="#F37727"/>
<path d="M27.1803 26.077L25.9556 25.827L27.1803 26.077ZM19.0992 31.7501C15.795 31.7501 12.9454 29.268 12.2429 25.827L9.79344 26.3271C10.7072 30.8027 14.4799 34.2501 19.0992 34.2501V31.7501ZM25.9556 25.827C25.2531 29.268 22.4035 31.7501 19.0992 31.7501V34.2501C23.7186 34.2501 27.4913 30.8027 28.4051 26.3271L25.9556 25.827ZM26.2469 23.75H11.9516V26.25H26.2469V23.75ZM28.4051 26.3271C28.701 24.8777 27.517 23.75 26.2469 23.75V26.25C26.1786 26.25 26.1014 26.22 26.041 26.1517C25.9742 26.0762 25.9301 25.9518 25.9556 25.827L28.4051 26.3271ZM12.2429 25.827C12.2684 25.9518 12.2243 26.0762 12.1575 26.1517C12.0971 26.22 12.0199 26.25 11.9516 26.25V23.75C10.6815 23.75 9.49753 24.8777 9.79344 26.3271L12.2429 25.827Z" fill="#252525"/>
<ellipse cx="48" cy="25.5" rx="2" ry="2.5" stroke="#252525" stroke-width="2"/>
<ellipse cx="41" cy="25.5" rx="2" ry="2.5" stroke="#252525" stroke-width="2"/>
<path d="M48 22.5L48 18.5" stroke="#252525" stroke-width="2" stroke-linecap="round"/>
<path d="M41 22.5L41 18.5" stroke="#252525" stroke-width="2" stroke-linecap="round"/>
</svg>
