<svg width="56" height="56" viewBox="0 0 56 56" fill="none" xmlns="http://www.w3.org/2000/svg">
<path d="M2.10882 52.0037C3.18217 42.4329 11.9299 39.3349 16.4444 39H39.4052C39.5034 39 39.6069 39.0075 39.704 39.0225C49.569 40.549 53.0539 47.4164 53.8239 52.0124C54.0064 53.1018 53.1046 54 52 54H4C2.89543 54 1.98571 53.1013 2.10882 52.0037Z" fill="#F6F6F6" stroke="#252525" stroke-width="3"/>
<path d="M38.8581 38.8372C42.6103 35.6692 45 29.8668 45 19.8605C45 11.2294 37.3889 2 28 2C18.6111 2 11 11.2294 11 19.8605C11 29.8668 13.3897 35.6692 17.1419 38.8372C16.1467 39.2104 15.278 39.821 14.6252 40.6059C13.9725 41.3909 13.5594 42.3217 13.4286 43.3023C13.4286 48 19.9517 48.5 28 48.5C36.0483 48.5 42.5714 48 42.5714 43.3023C42.4406 42.3217 42.0275 41.3909 41.3748 40.6059C40.722 39.821 39.8533 39.2104 38.8581 38.8372Z" fill="#90E45C" stroke="#252525" stroke-width="3" stroke-linecap="round" stroke-linejoin="round"/>
<path d="M39 20C39 14.2017 34.0744 11.8334 28 11.8334C21.9256 11.8334 17 14.2017 17 20V25.8334C17 28.6181 18.1589 31.2889 20.2218 33.258C22.2847 35.2271 25.0826 36.3334 28 36.3334C30.9174 36.3334 33.7153 35.2271 35.7782 33.258C37.8411 31.2889 39 28.6181 39 25.8334V20Z" fill="#F6F6F6" stroke="#252525" stroke-width="2" stroke-linecap="round" stroke-linejoin="round"/>
<path d="M38.5 19H17.5C17.5 13.5 22 12 22 12C22 12 24 11 28 11C32 11 34 12 34 12C34 12 38.5 13.5 38.5 19Z" fill="#90E45C" stroke="#252525" stroke-width="3" stroke-linecap="round"/>
<path d="M39 19.2192C39 13.262 34.0744 11 28 11C21.9256 11 17 13.262 17 19.2192V25.2123C17 28.0734 18.1589 30.8173 20.2218 32.8404C22.2847 34.8634 25.0826 36 28 36C30.9174 36 33.7153 34.8634 35.7782 32.8404C37.8411 30.8173 39 28.0734 39 25.2123V19.2192Z" stroke="#252525" stroke-width="3" stroke-linecap="round" stroke-linejoin="round"/>
<path d="M40 37.5C38.4308 39.2778 34.0692 41.5556 32.5 42" stroke="#252525" stroke-width="2.5" stroke-linecap="round"/>
</svg>
