<svg width="24" height="24" viewBox="0 0 24 24" fill="none" xmlns="http://www.w3.org/2000/svg">
<path d="M12.0182 17.4235C13.8606 17.4235 15.3542 15.9299 15.3542 14.0875C15.3542 12.2451 13.8606 10.7515 12.0182 10.7515C10.1758 10.7515 8.68225 12.2451 8.68225 14.0875C8.68225 15.9299 10.1758 17.4235 12.0182 17.4235Z" fill="#999999"/>
<path d="M12.0184 18.6348C10.8649 18.6353 9.74122 19.0019 8.80935 19.6818C7.87748 20.3617 7.18549 21.3199 6.83305 22.4183C6.81552 22.4713 6.81098 22.5276 6.81983 22.5827C6.82868 22.6377 6.85064 22.6898 6.88387 22.7346C6.91667 22.7785 6.95929 22.8141 7.00831 22.8386C7.05734 22.8631 7.11141 22.8759 7.16623 22.8757H16.865C16.9207 22.8758 16.9756 22.8626 17.0252 22.8374C17.0748 22.8121 17.1178 22.7755 17.1506 22.7305C17.1833 22.6855 17.205 22.6333 17.2137 22.5783C17.2225 22.5234 17.2181 22.4671 17.201 22.4141C16.8474 21.3173 16.1554 20.3607 15.2243 19.6817C14.2931 19.0027 13.1708 18.6362 12.0184 18.6348Z" fill="#999999"/>
<path d="M11.9997 5.23535C10.6559 5.23495 9.33511 5.58327 8.16632 6.24625C6.99754 6.90922 6.02082 7.86417 5.33165 9.01771C4.64249 10.1712 4.26448 11.4839 4.23459 12.8273C4.20469 14.1707 4.52394 15.4988 5.16111 16.6819C5.2524 16.8496 5.38729 16.9896 5.55155 17.087C5.7158 17.1844 5.90332 17.2356 6.09428 17.2353C6.26941 17.2361 6.44186 17.1924 6.59546 17.1082C6.84147 16.9742 7.02425 16.748 7.10366 16.4794C7.18306 16.2107 7.15261 15.9215 7.01898 15.6753C6.5564 14.815 6.32487 13.8494 6.34703 12.8729C6.36918 11.8963 6.64426 10.9423 7.14539 10.1038C7.64652 9.26538 8.35656 8.57127 9.20615 8.08929C10.0557 7.6073 11.0158 7.35394 11.9926 7.35394C12.9694 7.35394 13.9295 7.6073 14.7791 8.08929C15.6286 8.57127 16.3387 9.26538 16.8398 10.1038C17.3409 10.9423 17.616 11.8963 17.6382 12.8729C17.6603 13.8494 17.4288 14.815 16.9662 15.6753C16.8439 15.9216 16.822 16.2057 16.9052 16.4678C16.9884 16.7298 17.1702 16.9493 17.4122 17.0799C17.6541 17.2105 17.9374 17.242 18.2021 17.1678C18.4669 17.0935 18.6924 16.9193 18.8312 16.6819C19.468 15.4993 19.7873 14.1718 19.7577 12.829C19.7281 11.4862 19.3507 10.1741 18.6624 9.02074C17.9741 7.8674 16.9984 6.91234 15.8305 6.24886C14.6627 5.58538 13.3428 5.23617 11.9997 5.23535Z" fill="#999999"/>
<path d="M12 1C8.81856 1.00374 5.76851 2.26921 3.51889 4.51882C1.26928 6.76844 0.00380248 9.8185 6.62101e-05 12.9999C-0.00881791 15.6632 0.876591 18.2523 2.5144 20.3524C2.68664 20.5744 2.94002 20.7189 3.21881 20.7541C3.4976 20.7893 3.77895 20.7124 4.00098 20.5401C4.22302 20.3679 4.36753 20.1145 4.40275 19.8357C4.43796 19.5569 4.36098 19.2756 4.18875 19.0535C2.83945 17.3248 2.11008 15.1929 2.1177 12.9999C2.1177 10.379 3.15887 7.86538 5.01216 6.01209C6.86545 4.1588 9.37905 3.11763 12 3.11763C14.6209 3.11763 17.1345 4.1588 18.9878 6.01209C20.8411 7.86538 21.8823 10.379 21.8823 12.9999C21.89 15.194 21.1601 17.327 19.8098 19.0564C19.7199 19.1657 19.6528 19.2919 19.6125 19.4275C19.5722 19.5632 19.5595 19.7056 19.5752 19.8462C19.5909 19.9869 19.6346 20.123 19.7037 20.2465C19.7729 20.3699 19.8661 20.4783 19.9778 20.5651C20.0896 20.652 20.2176 20.7155 20.3544 20.752C20.4911 20.7885 20.6338 20.7973 20.7739 20.7777C20.9141 20.7581 21.0489 20.7106 21.1704 20.6381C21.2919 20.5655 21.3977 20.4693 21.4814 20.3552C23.1223 18.2554 24.0093 15.6648 23.9999 12.9999C23.9962 9.8185 22.7307 6.76844 20.4811 4.51882C18.2315 2.26921 15.1814 1.00374 12 1Z" fill="#999999"/>
</svg>
