<svg width="24" height="24" viewBox="0 0 24 24" fill="none" xmlns="http://www.w3.org/2000/svg">
<g clip-path="url(#clip0_1905_232)">
<path d="M23.3001 6.57956C22.8298 5.6638 22.1513 4.87111 21.3191 4.26518C20.4869 3.65925 19.5241 3.25697 18.5082 3.09067C17.4923 2.92436 16.4515 2.99867 15.4696 3.30762C14.4876 3.61656 13.5917 4.15154 12.8541 4.86956L12.0001 5.65056L11.1731 4.89756C10.4371 4.16563 9.53704 3.61993 8.54774 3.30581C7.55844 2.9917 6.50845 2.91825 5.48505 3.09156C4.46759 3.25019 3.50266 3.64933 2.67043 4.2558C1.8382 4.86227 1.16271 5.65858 0.700054 6.57856C0.0816291 7.79047 -0.134477 9.16794 0.0831055 10.511C0.300688 11.8541 0.940634 13.0929 1.91005 14.0476L11.2831 23.7036C11.3762 23.7994 11.4877 23.8756 11.6109 23.9276C11.734 23.9797 11.8664 24.0065 12.0001 24.0065C12.1337 24.0065 12.2661 23.9797 12.3892 23.9276C12.5124 23.8756 12.6239 23.7994 12.7171 23.7036L22.0771 14.0656C23.0504 13.11 23.6938 11.8689 23.9137 10.5227C24.1337 9.17651 23.9187 7.79525 23.3001 6.57956Z" fill="#999999"/>
</g>
<defs>
<clipPath id="clip0_1905_232">
<rect width="24" height="24" fill="white"/>
</clipPath>
</defs>
</svg>
