<svg width="24" height="24" viewBox="0 0 24 24" fill="none" xmlns="http://www.w3.org/2000/svg">
<path d="M22.3604 5.40805C21.9293 4.53617 21.3073 3.78146 20.5443 3.20456C19.7814 2.62766 18.8987 2.24466 17.9674 2.08632C17.036 1.92798 16.0818 1.99873 15.1816 2.29288C14.2813 2.58702 13.46 3.09636 12.7837 3.77998L12.0008 4.52356L11.2426 3.80664C10.5679 3.10978 9.74273 2.59022 8.83575 2.29116C7.92878 1.9921 6.96617 1.92216 6.02794 2.08717C5.09514 2.23821 4.21051 2.61822 3.44753 3.19563C2.68456 3.77305 2.06528 4.5312 1.64113 5.4071C1.07416 6.56095 0.876043 7.87242 1.07552 9.15114C1.27499 10.4299 1.86169 11.6093 2.75043 12.5182L11.3434 21.7116C11.4289 21.8029 11.5311 21.8754 11.644 21.9249C11.7569 21.9745 11.8782 22 12.0008 22C12.1233 22 12.2447 21.9745 12.3576 21.9249C12.4705 21.8754 12.5727 21.8029 12.6581 21.7116L21.2392 12.5354C22.1316 11.6256 22.7214 10.444 22.9231 9.16228C23.1247 7.88058 22.9276 6.56549 22.3604 5.40805Z" fill="#999999"/>
</svg>
